<?xml version="1.0" encoding="UTF-8"?> <svg xmlns="http://www.w3.org/2000/svg" id="Capa_1" data-name="Capa 1" width="103.83" height="45.69" viewBox="0 0 103.83 45.69"><defs><style> .cls-1 { fill: #020203; } </style></defs><g id="ISO_2016" data-name="ISO 2016"><g><g><path class="cls-1" d="M57.62,35.12v0a5.92,5.92,0,0,1-3.53,5.51,6.12,6.12,0,0,1-8.63-5.52v0H57.62m4.05-3H41.4v3.24a10.25,10.25,0,0,0,7.79,10.1,10.13,10.13,0,0,0,12.48-9.81h0V32.08Z"></path><path class="cls-1" d="M51.54,3.5a6.07,6.07,0,0,1,6.08,6v.24H45.46V9.55A6.08,6.08,0,0,1,51.54,3.5m0-3.5A10.1,10.1,0,0,0,41.4,10.07h0v3.77H61.67V10.07A10.09,10.09,0,0,0,51.54,0Z"></path><g><path class="cls-1" d="M51.91,22.23,73.88,12a2.58,2.58,0,0,0-.19-1.54,2.62,2.62,0,0,0-4.91,1.8L51.91,20.12,35,12.26a2.62,2.62,0,1,0-5.1-.25Z"></path><path class="cls-1" d="M74.12,28.2a2.61,2.61,0,0,0-3.26.89L57.47,22.85,71,16.55a2.62,2.62,0,0,0,4.4-2.77,2.55,2.55,0,0,0-1.06-1.14L52.66,22.74l21.66,10.1a2.5,2.5,0,0,0,1.06-1.14A2.61,2.61,0,0,0,74.12,28.2Z"></path><path class="cls-1" d="M51.16,22.73,29.49,12.63a2.55,2.55,0,0,0-1.06,1.14,2.62,2.62,0,0,0,4.4,2.77l13.51,6.3L33,29.08a2.62,2.62,0,0,0-4.53,2.6,2.55,2.55,0,0,0,1.06,1.14Z"></path><path class="cls-1" d="M51.91,23.23l-22,10.25A2.58,2.58,0,0,0,30.13,35a2.63,2.63,0,0,0,5-1.59l16.83-7.84,16.83,7.84a2.62,2.62,0,0,0,5,1.59,2.59,2.59,0,0,0,.19-1.54Z"></path></g></g><g><polygon class="cls-1" points="22.06 22.86 12.21 10.94 10.04 13.9 0 6.67 10.3 18.46 12.5 15.33 22.06 22.86"></polygon><polygon class="cls-1" points="81.77 22.86 91.62 10.94 93.78 13.9 103.83 6.67 93.52 18.46 91.33 15.33 81.77 22.86"></polygon></g></g></g></svg> 