<svg xmlns="http://www.w3.org/2000/svg" id="Capa_1" viewBox="0 0 123.41 25.71"><path d="M15.92,19.32c-.18-.02-.38-.1-.58-.26-.16-.11-.3-.29-.39-.38-.17-.19-.75-1.05-.89-1.33-.39-.76-.68-1.54-1.12-2.5-.18-.44-.5-1.45-1.06-2.79-.3-.67-.59-2.12-.8-2.55-.02-.04-.04-.05-.05-.05-.14,0-.29,.67-.4,.92-.25,.77-.54,1.58-.69,1.94-.48,1.08-.89,2.22-1.31,3.3-.36,.94-.67,1.88-1.06,2.7-.18,.37-.14,1.12-.33,1.47-.14,.3-.12,.51-.3,.78-.08,.11-.83,.3-1.24,.22-.37-.07-.76-.5-.79-.64-.05-.12-.4-.78-.26-1,.04-.1,.17-.26,.31-.35,.14-.09,.31-.09,.4-.14,.05-.02,.75-.9,.76-.94,.4-.8,1-1.53,1.74-2.87,.2-.37,.41-.82,.63-1.3l.7-1.56c.17-.36,.44-1.13,.57-1.76,.18-.73,.22-1.35,.28-1.93,0-.11,.1-.74,.77-.83,.15-.01,.33-.04,.57,0,.33,.06,.8,.52,.82,.58,.1,.24,.06,.54,.03,1.03-.06,.47,.56,2.32,.76,2.79,.24,.53,.73,1.69,1.1,2.52,.26,.51,.54,1.09,.85,1.6,.23,.45,.59,.92,.79,1.16,.43-.07,.78-1.44,.85-1.91,.07-.48,.49-1.62,.58-1.96,.21-.75,.41-1.37,.55-1.89,.18-.62,.28-.97,.33-1.08,.08-.32,.22-.66,.33-.93,.19-.47,.38-.88,.6-1.34,.19-.34,.6-1.15,.7-1.38,.13-.31,.65-1.25,1-1.3,.1-.01,.39-.06,.42,.06,.02,.07-.17,.16-.31,.28-.2,.19-.34,.57-.7,1.17-.23,.27-.32,.91-.71,1.84-.17,.45-.26,.99-.46,1.65-.32,1.04-1.12,3.15-1.25,4.46-.02,.34-.15,1.15-.21,1.85-.02,.4-.07,.86,0,1.13,0,.02-.01,.4-.07,.53-.14,.36-.52,.72-.54,.73-.3,.25-.7,.25-.94,.24Z" style="fill:#1d1d1b;"></path><path d="M23.38,12.32s.07-.1,.13-.16c.3-.24,.7-.51,.82-.56,.26-.12,.63-.24,.98-.26,.22,0,.47,.02,.67,.05,.25,.04,.5,.19,.67,.34,.14,.14,.38,.41,.43,.62,.07,.35,0,.52-.15,1-.1,.27-.3,.6-.46,.88-.29,.46-.64,.91-1.06,1.34-.22,.24-.48,.48-.73,.69-.21,.19-.43,.35-.65,.5-.44,.3-.88,.54-1.29,.69-.23,.08-.46,.13-.66,.14-.26,.01-.62-.01-.88-.11-.14-.07-.33-.15-.49-.28-.16-.14-.29-.34-.34-.49-.08-.24-.1-.52-.08-.8,.02-.21,.06-.43,.11-.65,.12-.42,.3-.82,.48-1.18,.14-.25,.62-.81,1.08-1.22,.39-.36,.72-.51,1.13-.57,.1-.01,.19-.02,.27-.01Zm.39,.35c.08,.06,.16,.13,.16,.22,.02,.29,.19,.55-.12,.7-.17,.1-.19,.11-.42,.19-.16,.04-.52,.05-.69,.15-.25,.17-.51,.65-.65,.9-.1,.23-.18,.45-.21,.67,0,.19-.01,.34,.04,.54,.04,.17,.06,.23,.25,.32,.16,.1,.24,.08,.51,.07,.34-.02,.81-.05,1.36-.42,.25-.18,.54-.35,.93-.75,.13-.15,.22-.24,.32-.38,.08-.12,.18-.32,.27-.46,.23-.39,.26-.4,.29-.87,0-.13,.01-.52-.03-.69-.06-.26-.17-.39-.31-.5-.13-.1-.29-.2-.56-.19-.35,.02-.46-.04-.79,.16-.16,.08-.25,.21-.35,.33Z" style="fill:#1d1d1b;"></path><path d="M34.05,13.53c.02,.4,0,.61,.04,.82,.04,.22,.03,.5,.06,.6,.09,.29,.18,.47,.29,.58,.14,.14,.33,.17,.54,.08,.44-.19,.86-.47,1.06-.66,.66-.63,1.07-.92,1.25-1.23,.06-.07,.42-.2,.54-.15,.04,.03,.14,.26,.06,.3-.17,.16-.27,.19-.52,.39l-.98,.94c-.48,.48-1,.99-1.39,1.33-.37,.32-.44,.37-.88,.42-.49,.05-.97-.51-1.14-1.15-.04-.19-.13-.56-.18-.89-.08-.35-.12-.98-.16-1.4-.04-.31-.05-.3-.08-.39-.05-.19-.2-.31-.39-.26-.16,.03-.48,.33-.55,.4-.3,.28-.42,.37-.72,.69-.25,.26-.45,.61-.63,.84-.18,.21-.54,.8-.62,1-.14,.38-.14,.35-.24,.58-.1,.23-.27,.54-.36,.64-.12,.13-.31,.27-.57,.18-.29-.09-.67-.42-.73-.68-.09-.35,.02-.65,.05-.93,.02-.15,.1-.61,.26-.96,.09-.2,.34-.87,.45-1.23,.05-.22,.21-.72,.21-.74,.08-.2,.06-.41,.16-.61,.07-.17,.24-.24,.37-.29,.25-.09,.45-.13,.69-.11,.15,.02,.39,.12,.46,.22,.07,.12,.12,.27,.11,.37-.02,.12,0,.28-.09,.45-.04,.07-.26,.24-.3,.31-.14,.25-.28,.5-.39,.73-.02,.05-.09,.41-.04,.56,.01,.04,.07,.05,.11,.05,.12-.02,.81-.76,.92-.86,.38-.37,.64-.64,.96-.99,.17-.18,.36-.43,.52-.59,.13-.15,.31-.31,.4-.43,.14-.15,.46-.27,.58-.32,.19-.06,.49,0,.76,.2,.12,.09,.23,.2,.25,.33,.05,.23,.02,.46-.02,.57-.1,.23-.14,.77-.13,1.28Z" style="fill:#1d1d1b;"></path><path d="M40.17,13.03c.35-.02,.98,.03,1.5,0,.53-.02,.93-.01,1.21-.06,.41-.06,1.08-.07,1.54-.09,.21,0,.38,0,.48,.02,.13,.01,.37,.09,.4,.18,.02,.05-.09,.2-.2,.19-.13-.02-.46-.05-.55-.03-.34,.08-.53,.1-.99,.17-.14,.03-.9,.32-1.29,.41-.51,.13-.78,.3-.99,.35-.21,.07-.59,.04-.74,.16-.24,.19-.47,.08-.57,.1-.12,0-.4-.1-.54-.28-.09-.11-.3-.25-.34-.4-.05-.19,.1-.4,.24-.53,.15-.14,.54-.18,.85-.19Z" style="fill:#1d1d1b;"></path><path d="M43.3,7.66c-.36,.17-.58,.38-1.09,.5-.44,.13-.75,.19-.98,.2-.35,.02-.57-.08-.71-.19-.15-.1-.33-.46-.25-.77,.07-.21,.33-.42,.54-.56,.32-.19,.81-.39,.97-.42,.37-.07,1.16-.05,1.97-.11,1.28-.08,2.92-.5,4.19-.7,.88-.13,1.62-.02,2.3-.15,.54-.1,2.23-.21,4.03-.38,1.23-.12,2.62-.14,3.28-.15,.57-.02,1.55-.1,2.13,.07,.22,.06,.57,.12,.78,.25,.11,.06,.15,.1,.18,.15,.06,.14,.06,.16-.14,.08-.39-.16-1.12-.26-1.47-.29-.4-.04-1.32,.07-1.8,.12,0,0-1.19,0-2.22,.12-1,.11-1.84,.16-2.09,.18-.33,.02-1.55,.33-1.55,.33-.43,.07-1.34,.17-1.76,.25l-2.94,.69c-.18,.03-.19,.09-.84,.19-.52,.08-1.01,.3-1.69,.43l-.82,.19Zm3.38,11.6s0,.14,.04,.24c.03,.09,.08,.17,0,.17-.25-.03-.3-.39-.36-.49-.11-.25-.13-.54-.17-.79-.04-.27-.05-1.54-.04-1.69l.1-1.64c.02-.44,.13-.98,.27-1.55,.17-.64,.39-1.3,.59-1.84,.14-.44,.31-.9,.5-1.35l.38-.89c.04-.14,.06-.46,.05-.57-.01-.6,.1-.87,.91-1.21,.3-.14,.66-.09,.81-.1,.28,0,.82,.49,.68,.71-.07,.09,.08,.29,0,.46-.18,.34-.94,.99-1.03,1.18-.56,1.12-.76,1.42-1.16,2.45-.12,.29-.49,.78-.66,1.33-.16,.48-.22,.7-.26,.99-.08,.42-.63,1.55-.58,2.24,.03,.41-.14,1.01-.12,1.45,.03,.19,.04,.69,.05,.93Z" style="fill:#1d1d1b;"></path><path d="M54.11,10.96s.07-.1,.13-.16c.3-.24,.7-.51,.82-.56,.26-.12,.63-.24,.98-.26,.22,0,.47,.02,.67,.05,.25,.04,.5,.19,.67,.34,.14,.14,.38,.41,.43,.62,.07,.35,0,.52-.15,1-.1,.27-.3,.6-.46,.88-.29,.46-.64,.91-1.06,1.34-.22,.24-.48,.48-.73,.69-.21,.19-.43,.35-.65,.5-.44,.3-.88,.54-1.29,.69-.23,.08-.46,.13-.66,.14-.26,.01-.62-.01-.88-.11-.14-.07-.33-.15-.49-.28-.16-.14-.29-.34-.34-.49-.08-.24-.1-.52-.08-.8,.02-.21,.06-.43,.11-.65,.12-.42,.3-.82,.48-1.18,.14-.25,.62-.81,1.08-1.22,.39-.36,.72-.51,1.13-.57,.1-.01,.19-.02,.27-.01Zm.39,.35c.08,.06,.16,.13,.16,.22,.02,.29,.19,.55-.12,.7-.17,.1-.19,.11-.42,.19-.16,.04-.52,.05-.69,.15-.25,.17-.51,.65-.65,.9-.11,.23-.18,.45-.21,.67,0,.19-.01,.34,.04,.54,.04,.17,.07,.23,.25,.33,.16,.1,.24,.08,.51,.07,.34-.02,.81-.05,1.36-.42,.25-.18,.54-.35,.93-.75,.13-.15,.22-.24,.32-.38,.08-.12,.18-.32,.27-.46,.23-.39,.26-.4,.29-.87,0-.13,.01-.52-.03-.69-.06-.26-.17-.39-.31-.5-.13-.1-.29-.2-.56-.19-.35,.02-.46-.04-.79,.16-.16,.08-.25,.21-.36,.33Z" style="fill:#1d1d1b;"></path><path d="M66.19,17.7c.28,.06,.49,.15,.62,.24,.17,.13,.34,.15,.17,.2-.16,.04-.58-.03-.92-.18-.35-.16-1.56-1.09-1.74-1.24-.18-.16-.5-.51-.74-.71-.52-.41-1.69-1.72-1.96-2.12-.15-.22-.3-.4-.45-.56-.11,.12-.23,.25-.37,.38-.63,.6-1.09,1.28-.97,1.53,.09,.17-.31,.48-.35,.54,0,.09-.15,.27-.34,.29-.23,.04-.41,.03-.57,.02-.23,0-.58-.27-.68-.46-.18-.32,.05-.68,.19-.92,.11-.21,.42-.47,.82-.83,.33-.3,.81-.55,1.22-.88,.08-.06,.24-.18,.43-.3-.07-.08-.13-.17-.17-.27-.11-.24-.51-.56-.66-.79-.19-.31-.27-.6-.28-.72,.02-.18,.01-.37,.25-.52,.09-.06,.26-.21,.44-.24,.24-.05,.63,.11,.73,.17,.04,.03,.19,.13,.29,.25,.1,.15,.11,.33,.12,.39,.05,.3,.21,.68,.34,.99,.38-.31,.59-.46,.98-.7,.39-.24,.81-.68,1.43-1.02,.48-.25,.91-.52,1.21-.63,.18-.06,.54-.21,.66-.21,.15,0,.25-.06,.35,0,.06,.04,.3,.15,.29,.22-.01,.1-.33,.2-.4,.21-.82,.16-1.13,.35-1.85,.76-.31,.18-.78,.57-1.19,.85-.39,.27-.67,.74-.89,.89-.12,.08-.22,.16-.33,.26,.39,.76,1.06,1.7,1.42,2.14,.3,.38,.67,.93,.85,1.11,.3,.27,1.48,1.74,2.05,1.89Z" style="fill:#1d1d1b;"></path><path d="M66.82,13.17c-.05,.35-.02,.62,.08,.74,.07,.09,.12,.13,.19,.12,.2,0,.65-.13,.84-.22,.22-.11,.52-.27,.84-.49,.19-.12,.38-.27,.59-.43,.18-.15,.43-.34,.69-.5,.26-.18,.5-.34,.59-.42,.04-.03,.19-.08,.31-.08,.08,0,.13,.06,.14,.08,.02,.03,.15,.17,.07,.26-.06,.06-.11,.07-.14,.09-.15,.1-.42,.19-.51,.26-.36,.24-.62,.33-1,.71-.26,.26-.8,.7-1.05,.92-.5,.46-.76,.83-1.01,1-.09,.07-.3,.23-.36,.26-.08,.05-.4,.15-.7,0-.1-.06-.29-.07-.46-.21-.13-.12-.25-.33-.32-.48-.13-.25-.23-.95-.15-1.43,.06-.38,.19-1.05,.3-1.29,.07-.15,.26-.61,.21-.85-.04-.19,.19-.57,.27-.69,.04-.07,.32-.4,.45-.5,.18-.16,.41-.07,.52-.1,.35-.07,.74,.27,.74,.48,0,.16-.17,.33-.29,.52-.08,.11-.17,.3-.26,.49-.11,.24-.21,.48-.28,.63-.16,.36-.27,.78-.31,1.13Zm.46-4.79c-.04-.12-.06-.23-.06-.31-.07-.35,.01-.68,.16-.93,.17-.27,.38-.46,.52-.55,.09-.03,.24-.08,.39-.06,.28,0,.63,.1,.8,.3,.11,.14,.06,.52,.04,.6-.07,.2-.12,.29-.15,.35-.13,.22-.31,.44-.6,.67-.07,.05-.44,.2-.64,.2-.17,0-.41-.16-.44-.26Z" style="fill:#1d1d1b;"></path><path d="M79.26,11.95c.02,.07-.03,.2-.15,.25-.17,.07-.37-.04-.62,.06-.26,.09-.52,.22-.81,.39-.35,.22-.81,.47-1.24,.73-.58,.34-1.36,.91-1.69,1.11-.55,.31-.88,.54-1.34,.77-.22,.1-.45,.14-.84,.2-.32,.05-.83-.13-1.13-.38-.21-.17-.5-.54-.54-.84-.01-.24-.03-.65,.05-.93,.12-.4,.27-.72,.51-1.15,.2-.36,.48-.74,.8-1.09,.38-.45,.93-.93,1.37-1.24,.6-.43,1.32-.6,1.84-.67,.36-.04,.64,0,.81,.09,.19,.1,.6,.37,.62,.53,.03,.15,.14,.48,.05,.62-.06,.13-.24,.29-.38,.35-.17,.06-.43,.07-.55,.08-.1,0-.25-.05-.34-.1-.1-.05-.29-.22-.32-.32-.02-.05-.05-.13-.04-.24v-.04c-.14-.04-.32-.03-.47,.04-.24,.12-.47,.43-.71,.6-.32,.25-.41,.44-.66,.75-.2,.25-.34,.42-.48,.71-.16,.33-.33,.56-.39,.87-.07,.34-.18,.56-.13,.79,.07,.3,.29,.44,.5,.44,.34,0,.8-.1,1.32-.36,.73-.37,2.09-1.11,2.9-1.51,.38-.17,.33-.2,.64-.33,.65-.28,.83-.36,1.12-.38,.1,0,.27,.1,.29,.18Z" style="fill:#1d1d1b;"></path><path d="M84.45,16.48l-.12-.24c-.03-.07-.08-.53-.02-.73,.01-.08,.41-.9,.69-1.35,.47-.74,.79-1.33,1.24-2.01,.36-.54,.76-1.06,1.15-1.57-.67,.15-1.32,.3-1.89,.47-.39,.12-.85,.17-1.05,.34-.31,.27-.54,.44-.91,.48-.16,.02-.49,.01-.74-.03-.24-.04-.55-.17-.68-.22-.12-.05-.39-.26-.4-.5-.01-.25,.17-.53,.33-.57,.44-.11,.54-.23,.97-.34,.52-.13,1.89-.09,2.53-.26,.77-.19,1.62-.31,2.69-.43l.26-.32c.64-.83,1.26-1.64,1.99-2.48,.56-.66,1.19-1.21,1.83-1.89,.3-.3,.92-.81,1.5-1.15,.33-.2,1.08-.48,1.35-.48,.23,0,.47,.07,.69,.18,.29,.13,.58,.39,.7,.69,.12,.29,.19,1.15,.19,1.68,0,.83-.16,2.02-.32,3.07,.43-.03,.84-.04,1.16-.03,.45,.02,1.43-.04,1.76,.08,.11,.03,.28,.13,.3,.17,.15,.27-.39,.08-.67,.05-.47-.04-1.53,.05-2.61,.17-.11,.74-.2,1.38-.18,1.68,0,.38,0,.8-.02,1.08-.03,1.23-.14,1.4-.02,2.11,.02,.06,0,.99,.02,1.29,.04,.43,.22,1.17,.23,1.41,.01,.56,.16,.98,.24,1.2,0,.03,.04,.13,.11,.23,.1,.15,.2,.31,.02,.3-.18-.02-.38-.35-.49-.57-.04-.08-.22-.48-.38-1.11-.11-.44-.17-.95-.23-1.33-.09-.55-.19-1.3-.24-1.71-.05-.52-.31-1.88-.35-3.07l-.02-1.34c-.23,.03-.44,.05-.64,.07-.83,.07-1.77,.21-2.62,.34-.99,.15-2.19,.36-3.3,.57l-.36,.52c-.15,.26-.36,.58-.52,.85-.18,.34-.35,.64-.56,1.01-.24,.5-.29,.73-.44,1.31-.08,.33-.32,.96-.24,1.19,.12,.33-.05,.75-.07,.98-.04,.3-.57,.51-.74,.55-.23,.06-1.05-.05-1.18-.29Zm10.65-7.57v-1.03c.03-.6,.07-1.22,.02-1.77-.07-.42-.15-1.18-.27-1.4-.11-.24-.35-.3-.66-.26-.26,.02-.52,.14-.88,.36-.3,.19-.67,.45-1.06,.89-.5,.53-.94,1.06-1.34,1.56-.51,.62-.95,1.22-1.34,1.75-.11,.15-.21,.28-.32,.41,.26-.02,.52-.04,.79-.07,1.33-.13,2.69-.25,3.91-.33,.36-.02,.76-.06,1.17-.1Z" style="fill:#1d1d1b;"></path><path d="M100.2,8.43c.14-.06,.39-.1,.6-.09,.1,0,.26,.03,.4,.1,.12,.05,.21,.14,.28,.18,.1,.07,.21,.3,.2,.4,0,.15-.05,.2-.12,.33-.04,.08-.11,.13-.2,.33l-.1,.35c-.02,.07,0,.14,.04,.14,.06,0,.17-.1,.18-.11,.11-.14,.21-.3,.31-.4,.32-.34,.92-.99,1.42-1.37,.13-.1,.28-.23,.42-.31,.16-.1,.29-.14,.48-.22,.17-.06,.28-.01,.47-.05,.08-.01,.36,.05,.46,.15,.1,.09,.24,.28,.25,.36,.03,.36-.07,.64-.31,.86-.12,.11-.05,.13-.2,.15-.23,.03-.33,.04-.53-.01-.28-.08-.44-.16-.61-.14-.15,0-.48,.12-.65,.2-.17,.08-.53,.45-.76,.68-.29,.27-.7,.82-.93,1.16-.42,.59-.33,.46-.6,1.05-.14,.29-.1,.53-.12,.64,0,.18,.07,.39,.08,.51,.02,.19-.03,.34-.1,.49-.09,.21-.45,.36-.73,.36-.23,0-.69-.46-.78-.66-.1-.27-.05-.72,0-.98,.09-.49,.15-.72,.44-1.51,.11-.28,.41-1.06,.49-1.31,.06-.15-.09-.69-.04-.85,.02-.16,.06-.34,.28-.43Z" style="fill:#1d1d1b;"></path><path d="M106.64,12.27c-.02-.32,.11-.9,.22-1.28,.2-.71,.37-1.46,.55-1.97,.27-.81,.68-1.6,.99-2.41-.35,.1-.61,.2-.78,.27-.23,.1-1.09,.37-1.26,.44-.15,.06-.82,.03-.94,0-.21-.08-.31-.47-.23-.61,.05-.06,.22-.62,.6-.7,.31-.07,.69,.02,1.2-.03,.57-.05,1.21-.1,1.78-.17,.15-.26,.31-.5,.43-.74,.11-.24,.17-.46,.17-.55,0-.08,0-.35,.25-.51,.13-.1,.7-.25,.99-.11,.11,.05,.32,.42,.36,.55,.06,.17,.04,.32-.05,.46-.13,.22-.41,.41-.58,.55-.04,.03-.08,.09-.15,.16,.74-.09,1.61-.16,2.42-.21,.86-.04,1.77,0,1.98,0,.35,0,.49,.12,.38,.18-.25,.15-.18,.04-.59,.12-.1,.01-.91,.02-1.41,.05-.46,.03-.95,.13-1.36,.17-.49,.05-.83,.19-1.01,.24-.25,.08-.56,.13-.83,.17-.2,.35-.44,.74-.6,1.17-.32,.83-.43,1.38-.64,2.05-.13,.34-.2,1.06-.28,1.44-.06,.38-.09,.82-.02,1.04,.04,.14,.1,.22,.19,.25,.13,.04,.29,.02,.39-.02,.3-.08,.81-.31,1.29-.61,.45-.28,1.1-.53,1.5-.79,.23-.14,.91-.38,1.06-.49,.05-.04,.23,.05,.27,.09,.02,.04,.06,.2,0,.24-.13,.08-.29,.05-.46,.11-.38,.16-.92,.53-1.38,.84-.78,.54-.96,.71-1.51,1.13-.1,.08-.67,.46-.87,.64-.19,.16-.44,.22-.5,.25-.15,.06-.57,0-.84-.11-.24-.11-.46-.25-.58-.52-.19-.4-.12-.46-.15-.8Z" style="fill:#1d1d1b;"></path><path d="M116.1,12.54c-.28,.07-.68,.2-.79,.19-.19-.04-.48-.16-.67-.32-.11-.1-.19-.38-.12-.5,.11-.22,.38-.46,.62-.61,.14-.08,.25-.09,.36-.12,.35-.11,.46-.15,.7-.09,.27,.08,.54,.33,.57,.43,.07,.18,0,.49-.07,.65-.05,.04-.4,.29-.6,.35Z" style="fill:#1d1d1b;"></path></svg>