<svg xmlns="http://www.w3.org/2000/svg" id="a" viewBox="0 0 128 26"><g id="b"><g><path d="M128,2.73c0,1.4-1.09,2.47-2.49,2.47s-2.5-1.08-2.5-2.47,1.11-2.44,2.5-2.44,2.49,1.08,2.49,2.44Zm-4.46,0c0,1.14,.85,2.03,1.98,2.03s1.92-.89,1.92-2.01-.81-2.03-1.94-2.03-1.97,.91-1.97,2.01Zm1.52,1.35h-.48V1.52c.26-.05,.54-.08,.89-.08,.43,0,.64,.08,.81,.2,.15,.11,.26,.31,.26,.54,0,.32-.23,.52-.51,.62v.03c.23,.09,.35,.29,.43,.61,.08,.4,.12,.55,.19,.64h-.49c-.08-.09-.14-.32-.2-.68-.06-.28-.23-.4-.6-.4h-.31v1.08Zm0-1.44h.32c.35,0,.66-.11,.66-.41,0-.25-.15-.42-.61-.42-.18,0-.29,.02-.37,.03v.8Z" style="fill:#1d1d1b;"></path><g><path d="M0,25.36L4.01,.1h6.06c3.38,0,5.82,.56,7.32,1.67,1.5,1.11,2.25,2.92,2.25,5.41,0,3.15-.89,5.57-2.67,7.26s-4.33,2.53-7.64,2.53c-.1,0-.26,0-.48-.02-.21-.01-.37-.02-.48-.02l-1.32,8.43H0ZM10.18,5.69l-.88,5.59c.09,.02,.19,.04,.29,.04,.1,0,.23,0,.38,0,1,0,1.76-.3,2.26-.9,.5-.6,.75-1.51,.75-2.72,0-.67-.21-1.17-.62-1.51-.42-.34-1.02-.51-1.82-.51h-.36Z" style="fill:#020304;"></path><path d="M19.12,25.36L23.12,.1h7.06l-4.01,25.27h-7.04Z" style="fill:#020304;"></path><path d="M37.35,8.54l-2.06,16.83h-6.07L33.23,.1h9.11l.47,11.18L46.7,.1h9.21l-4.01,25.27h-6.09l3.25-16.88-6.19,16.88h-4.78l-.74-16.83Z" style="fill:#020304;"></path><path d="M102.08,8.54l-2.06,16.83h-6.07L97.96,.1h9.11l.47,11.18L111.43,.1h9.21l-4.01,25.27h-6.09l3.25-16.88-6.19,16.88h-4.78l-.74-16.83Z" style="fill:#020304;"></path><path d="M54.94,25.36L58.95,.1h6.06c3.38,0,5.82,.56,7.32,1.67s2.25,2.92,2.25,5.41c0,3.15-.89,5.57-2.67,7.26s-4.33,2.53-7.64,2.53c-.1,0-.26,0-.48-.02-.21-.01-.37-.02-.48-.02l-1.32,8.43h-7.06Zm10.18-19.68l-.88,5.59c.09,.02,.19,.04,.29,.04,.1,0,.23,0,.38,0,1,0,1.76-.3,2.26-.9,.5-.6,.75-1.51,.75-2.72,0-.67-.21-1.17-.62-1.51-.42-.34-1.02-.51-1.82-.51h-.36Z" style="fill:#020304;"></path><path d="M75.1,16.33L77.65,.1h7.09l-2.7,16.91c-.02,.14-.04,.27-.05,.38-.01,.12-.02,.25-.02,.4,0,.43,.12,.76,.37,1.01s.59,.37,1.01,.37c.55,0,.99-.18,1.31-.54,.32-.36,.53-.9,.65-1.63L88,.1h7.06l-2.58,16.21-.05,.26c-.5,3.07-1.25,5.21-2.27,6.42-.81,.97-1.83,1.7-3.07,2.18-1.24,.48-2.71,.73-4.4,.73-2.65,0-4.62-.56-5.9-1.67-1.28-1.11-1.92-2.81-1.92-5.1,0-.37,.02-.77,.05-1.21s.1-.97,.19-1.59Z" style="fill:#020304;"></path></g></g></g></svg>